<?xml version="1.0" encoding="UTF-8"?>
<svg width="50mm" height="50mm" version="1.1" viewBox="0 0 50 50" xmlns="http://www.w3.org/2000/svg">
<g fill-rule="evenodd" stroke-width="0">
<path d="m25 5.0001e-7v10a15 15 0 0 1 15 15h10a25 25 0 0 0-25-25z" fill="#b300ff" stop-color="#000000"/>
<path d="m25 25v9.9997a15 15 0 0 1 15 15h10a25 25 0 0 0-25-25z" fill="#2b39fe" stop-color="#000000"/>
<path d="m5e-7 5.0001e-7v10a15 15 0 0 1 15 15h10a25 25 0 0 0-25-25z" fill="#2b39fe" stop-color="#000000"/>
<path d="m5e-7 25v9.9997a15 15 0 0 1 15 15h10a25 25 0 0 0-25-25z" fill="#8400ff" stop-color="#000000"/>
</g>
</svg>
